<?xml version="1.0" encoding="UTF-8" standalone="no"?>
<svg width="255px" height="255px" viewBox="0 0 255 255" version="1.1" xmlns="http://www.w3.org/2000/svg" xmlns:xlink="http://www.w3.org/1999/xlink">
    <title>jetbrains</title>
    <defs>
        <radialGradient cx="99.1915457%" cy="3.61061231%" fx="99.1915457%" fy="3.61061231%" r="111.335069%" id="radialGradient-1">
            <stop stop-color="#9F77A8" offset="4.515%"></stop>
            <stop stop-color="#00AEEF" offset="100%"></stop>
        </radialGradient>
        <radialGradient cx="3.8213949%" cy="80.5511341%" fx="3.8213949%" fy="80.5511341%" r="91.5537961%" id="radialGradient-2">
            <stop stop-color="#ED037C" offset="10.347%"></stop>
            <stop stop-color="#9F77A8" offset="100%"></stop>
        </radialGradient>
        <radialGradient cx="94.0199009%" cy="81.3263644%" fx="94.0199009%" fy="81.3263644%" r="111.085917%" id="radialGradient-3">
            <stop stop-color="#5C2D91" offset="14.688%"></stop>
            <stop stop-color="#ED037C" offset="100%"></stop>
        </radialGradient>
        <linearGradient x1="5.2263834%" y1="3.05721095%" x2="86.4060404%" y2="81.6414871%" id="linearGradient-4">
            <stop stop-color="#44C8F5" offset="0%"></stop>
            <stop stop-color="#5C2D91" offset="100%"></stop>
        </linearGradient>
    </defs>
    <g id="Page-1" stroke="none" stroke-width="1" fill="none" fill-rule="evenodd">
        <g id="jetbrains">
            <rect id="Rectangle-1-Copy" fill="#FFFFFF" x="0" y="0" width="255" height="255"></rect>
            <g id="Layer_1" transform="translate(7.000000, 61.000000)">
                <g id="Group">
                    <path d="M235.272158,17.5651272 C238.19252,15.9398905 240.019847,12.8674118 240.059135,9.51627704 C240.098423,6.16514231 238.343633,3.05036361 235.462183,1.3566153 C232.580733,-0.337133007 229.015451,-0.349550798 226.122357,1.32408491 L15.6019732,124.856515 C13.9526314,125.887036 13.190238,127.894764 13.7378576,129.765577 C14.2854772,131.63639 16.0087422,132.911254 17.9513847,132.882725 C18.5810332,132.872125 19.2005187,132.721633 19.765298,132.442071 L235.272158,17.5651272 Z" id="Shape" fill="url(#radialGradient-1)"></path>
                    <path d="M232.490756,18.5747742 C237.290158,17.6609444 240.566085,13.1749524 239.989164,8.30659637 C239.412244,3.43824039 235.179311,-0.151476984 230.300225,0.0899396816 C230.108498,0.099421421 229.918752,0.11570115 229.730796,0.137474971 L64.8774944,24.5253062 C58.2383823,25.6546093 53.6363107,31.7945981 54.3959332,38.5095885 C55.1555558,45.224579 61.0119749,50.172901 67.7343643,49.7797608 C68.1055198,49.7580883 68.4706966,49.7173383 68.8313324,49.6632962 L232.490756,18.5747742 Z" id="Shape" fill="url(#radialGradient-2)"></path>
                    <path d="M76.9722214,29.2135643 C72.8439061,23.9369319 65.343432,22.7821953 59.828979,26.574274 C54.314526,30.3663526 52.6796357,37.8031304 56.092239,43.5719306 L104.053397,123.242771 C107.136193,128.164949 112.629719,131.029722 118.414989,130.732078 C124.200259,130.434433 129.373096,127.02089 131.938212,121.808134 C134.503328,116.595378 134.059823,110.398109 130.778767,105.606761 L76.9722214,29.2135643 Z" id="Shape" fill="url(#radialGradient-3)"></path>
                    <path d="M8.22514116,35.8032212 C5.71281401,34.5087115 2.63306445,35.2974376 1.04595938,37.6418149 C-0.541145694,39.9861921 -0.137383249,43.1502751 1.98716708,45.0175857 L108.019722,127.553684 C112.83672,131.167913 119.266692,131.764743 124.662456,129.098464 C130.05822,126.432184 133.507617,120.953532 133.59055,114.918037 C133.673483,108.882541 130.375931,103.310509 125.055479,100.495914 L8.22514116,35.8032212 Z" id="Shape" fill="url(#linearGradient-4)"></path>
                    <rect id="Rectangle-path" fill="#000000" x="63.2098739" y="46.9905091" width="64.6485767" height="64.8822261"></rect>
                    <rect id="Rectangle-path" fill="#FFFFFF" x="68.7862135" y="99.707309" width="24.2432131" height="4.05514625"></rect>
                    <g transform="translate(68.193500, 54.512972)" fill="#FFFFFF">
                        <path d="M4.02313714,11.344148 C5.09110112,11.3916877 6.13304262,11.0049935 6.91324387,10.2715468 C7.65839803,9.46859271 8.03499671,8.38946854 7.95188662,7.29536928 L7.95188662,0.587766568 L5.04670662,0.587766568 L5.04670662,7.28030483 C5.12049016,7.64074715 5.02994749,8.01542357 4.79983344,8.30189554 C4.5697194,8.58836751 4.22410481,8.75666897 3.85748256,8.7607854 C3.1814691,8.7159566 2.56687769,8.35148118 2.20164311,7.7788114 L0.32019657,9.56149233 C1.17409964,10.7466734 2.56768011,11.4175656 4.02313714,11.344148 L4.02313714,11.344148 Z" id="Shape"></path>
                        <polygon id="Shape" points="17.1784798 8.67028479 11.5187515 8.67028479 11.5187515 6.99294104 16.5768104 6.99294104 16.5768104 4.68137146 11.5187515 4.68137146 11.5187515 3.06605778 17.1040594 3.06605778 17.1040594 0.587386792 8.62897276 0.587386792 8.62897276 11.1628809 17.1784798 11.1628809"></polygon>
                        <polygon id="Shape" points="20.9209388 11.1628809 23.8409902 11.1628809 23.8409902 3.15593809 27.0019617 3.15593809 27.0019617 0.587386792 17.7751037 0.587386792 17.7751037 3.15593809 20.9209388 3.15593809"></polygon>
                        <path d="M7.92170224,18.6803558 C8.91317892,18.3286954 9.56843132,17.3788429 9.54744561,16.3236815 L9.54744561,16.293388 C9.56255498,15.6511022 9.31825737,15.0299738 8.87009459,14.5712181 C8.07358323,13.8883978 7.03925123,13.5514177 5.99499806,13.634526 L0.591124367,13.634526 L0.591124367,24.2095644 L6.02506891,24.2095644 C8.53886111,24.2095644 10.0140106,23.1067584 10.0140106,21.2939485 L10.0140106,21.2636551 C10.0432393,20.0037508 9.15656865,18.9090098 7.92170224,18.6803558 L7.92170224,18.6803558 Z M3.43603652,15.9912763 L5.34779357,15.9912763 C6.20582199,15.9912763 6.6723617,16.3085284 6.6723617,16.8976749 L6.6723617,16.9278797 C6.6723617,17.5472436 6.16055173,17.8494693 5.27250291,17.8494693 L3.43603652,17.8494693 L3.43603652,15.9912889 L3.43603652,15.9912763 Z M7.0938582,20.8859806 C7.0938582,21.5053445 6.59713411,21.8528015 5.69399941,21.8528015 L3.43603652,21.8528015 L3.43603652,19.9040572 L5.66389071,19.9040572 C6.64232869,19.9040572 7.0938582,20.2817317 7.0938582,20.8558137 L7.0938582,20.8860185 L7.0938582,20.8859806 Z" id="Shape"></path>
                        <path d="M23.2147117,13.5590392 L19.2775742,22.9385429 L17.6305769,20.5233705 C18.9781678,20.0180158 19.8516137,18.7030764 19.7980749,17.2602849 L19.7980749,17.2300801 C19.8409099,16.3148375 19.5028798,15.4228844 18.8648315,14.7675496 C17.9189178,13.9425795 16.6820609,13.5342528 15.4328818,13.6345514 L10.4503785,13.6345514 L10.4503785,24.2095897 L13.3705056,24.2095897 L13.3705056,21.0068126 L14.665129,21.0068126 L16.7875208,24.2095897 L21.799704,24.2095897 L22.5524087,22.3061527 L26.6316512,22.3061527 L27.3842803,24.2095897 L30.5153575,24.2095897 L26.0295278,13.5590646 L23.2147117,13.5590646 L23.2147117,13.5590392 Z M16.8778847,17.4566291 C16.8629003,17.8422636 16.6815386,18.2022908 16.3809896,18.4430321 C16.0804407,18.6837735 15.6904242,18.7814233 15.3124218,18.7105733 L13.3705687,18.7105733 L13.3705687,16.1574789 L15.2973359,16.1574789 C15.6805237,16.0781786 16.0789969,16.1742207 16.3845114,16.4195157 C16.690026,16.6648106 16.8708579,17.0338874 16.8778847,17.4264876 L16.8778847,17.4566164 L16.8778847,17.4566291 Z M23.410475,20.0249399 L24.5996991,17.0336726 L25.7737616,20.0249399 L23.410475,20.0249399 L23.410475,20.0249399 Z" id="Shape"></path>
                        <rect id="Rectangle-path" x="30.8611723" y="13.634526" width="2.92020281" height="10.5750384"></rect>
                        <polygon id="Shape" points="41.5631167 19.2242583 37.2278179 13.6339564 34.5032774 13.6339564 34.5032774 24.2094505 37.3943176 24.2094505 37.3943176 18.4090059 41.9099911 24.2094505 44.4541568 24.2094505 44.4541568 13.6339564 41.5631167 13.6339564"></polygon>
                        <path d="M49.9200895,17.6228697 C48.4449401,17.2905531 48.0837114,17.0790685 48.0837114,16.5956264 L48.0837114,16.5653709 C48.0837114,16.172556 48.4299299,15.885572 49.1373644,15.885572 C50.204439,15.9191009 51.2350352,16.2831882 52.0877515,16.9278797 L53.5478151,14.8582401 C52.313392,13.8908696 50.777677,13.3931555 49.212655,13.4532463 C46.6837769,13.4532463 45.1333242,14.8733931 45.1333242,16.8372525 L45.1333242,16.8674574 C45.1333242,19.0278002 46.8643913,19.6623045 49.1073313,20.1759768 C50.552309,20.5234464 50.8984644,20.7499828 50.8984644,21.203296 L50.8984644,21.2334249 C50.8984644,21.6866242 50.4769553,21.958645 49.6792199,21.958645 C48.4290201,21.9408421 47.2227948,21.4928767 46.2621921,20.6896364 L44.6366001,22.638444 C46.0139481,23.8080293 47.7701217,24.4313741 49.5738837,24.3909074 C52.1328704,24.3909074 53.8339045,23.1067584 53.8339045,20.9464789 L53.8339045,20.9161981 C53.8339045,18.9371856 52.328495,18.1516317 49.9200895,17.6228697 L49.9200895,17.6228697 Z" id="Shape"></path>
                    </g>
                </g>
            </g>
        </g>
    </g>
</svg>
